<svg width="177" height="28" viewBox="0 0 177 28" fill="none" xmlns="http://www.w3.org/2000/svg">
<path d="M14.516 12.084C14.516 12.78 14.276 13.36 13.796 13.824C13.324 14.28 12.6 14.508 11.624 14.508H10.016V18H8.924V9.636H11.624C12.568 9.636 13.284 9.864 13.772 10.32C14.268 10.776 14.516 11.364 14.516 12.084ZM11.624 13.608C12.232 13.608 12.68 13.476 12.968 13.212C13.256 12.948 13.4 12.572 13.4 12.084C13.4 11.052 12.808 10.536 11.624 10.536H10.016V13.608H11.624ZM18.6212 18.108C18.0052 18.108 17.4452 17.968 16.9412 17.688C16.4452 17.408 16.0532 17.012 15.7652 16.5C15.4852 15.98 15.3452 15.38 15.3452 14.7C15.3452 14.028 15.4892 13.436 15.7772 12.924C16.0732 12.404 16.4732 12.008 16.9772 11.736C17.4812 11.456 18.0452 11.316 18.6692 11.316C19.2932 11.316 19.8572 11.456 20.3612 11.736C20.8652 12.008 21.2612 12.4 21.5492 12.912C21.8452 13.424 21.9932 14.02 21.9932 14.7C21.9932 15.38 21.8412 15.98 21.5372 16.5C21.2412 17.012 20.8372 17.408 20.3252 17.688C19.8132 17.968 19.2452 18.108 18.6212 18.108ZM18.6212 17.148C19.0132 17.148 19.3812 17.056 19.7252 16.872C20.0692 16.688 20.3452 16.412 20.5532 16.044C20.7692 15.676 20.8772 15.228 20.8772 14.7C20.8772 14.172 20.7732 13.724 20.5652 13.356C20.3572 12.988 20.0852 12.716 19.7492 12.54C19.4132 12.356 19.0492 12.264 18.6572 12.264C18.2572 12.264 17.8892 12.356 17.5532 12.54C17.2252 12.716 16.9612 12.988 16.7612 13.356C16.5612 13.724 16.4612 14.172 16.4612 14.7C16.4612 15.236 16.5572 15.688 16.7492 16.056C16.9492 16.424 17.2132 16.7 17.5412 16.884C17.8692 17.06 18.2292 17.148 18.6212 17.148ZM32.069 11.424L30.017 18H28.889L27.305 12.78L25.721 18H24.593L22.529 11.424H23.645L25.157 16.944L26.789 11.424H27.905L29.501 16.956L30.989 11.424H32.069ZM39.0327 14.46C39.0327 14.668 39.0207 14.888 38.9967 15.12H33.7407C33.7807 15.768 34.0007 16.276 34.4007 16.644C34.8087 17.004 35.3007 17.184 35.8767 17.184C36.3487 17.184 36.7407 17.076 37.0527 16.86C37.3727 16.636 37.5967 16.34 37.7247 15.972H38.9007C38.7247 16.604 38.3727 17.12 37.8447 17.52C37.3167 17.912 36.6607 18.108 35.8767 18.108C35.2527 18.108 34.6927 17.968 34.1967 17.688C33.7087 17.408 33.3247 17.012 33.0447 16.5C32.7647 15.98 32.6247 15.38 32.6247 14.7C32.6247 14.02 32.7607 13.424 33.0327 12.912C33.3047 12.4 33.6847 12.008 34.1727 11.736C34.6687 11.456 35.2367 11.316 35.8767 11.316C36.5007 11.316 37.0527 11.452 37.5327 11.724C38.0127 11.996 38.3807 12.372 38.6367 12.852C38.9007 13.324 39.0327 13.86 39.0327 14.46ZM37.9047 14.232C37.9047 13.816 37.8127 13.46 37.6287 13.164C37.4447 12.86 37.1927 12.632 36.8727 12.48C36.5607 12.32 36.2127 12.24 35.8287 12.24C35.2767 12.24 34.8047 12.416 34.4127 12.768C34.0287 13.12 33.8087 13.608 33.7527 14.232H37.9047ZM41.4462 12.492C41.6382 12.116 41.9102 11.824 42.2622 11.616C42.6222 11.408 43.0582 11.304 43.5702 11.304V12.432H43.2822C42.0582 12.432 41.4462 13.096 41.4462 14.424V18H40.3542V11.424H41.4462V12.492ZM50.7107 14.46C50.7107 14.668 50.6987 14.888 50.6747 15.12H45.4187C45.4587 15.768 45.6787 16.276 46.0787 16.644C46.4867 17.004 46.9787 17.184 47.5547 17.184C48.0267 17.184 48.4187 17.076 48.7307 16.86C49.0507 16.636 49.2747 16.34 49.4027 15.972H50.5787C50.4027 16.604 50.0507 17.12 49.5227 17.52C48.9947 17.912 48.3387 18.108 47.5547 18.108C46.9307 18.108 46.3707 17.968 45.8747 17.688C45.3867 17.408 45.0027 17.012 44.7227 16.5C44.4427 15.98 44.3027 15.38 44.3027 14.7C44.3027 14.02 44.4387 13.424 44.7107 12.912C44.9827 12.4 45.3627 12.008 45.8507 11.736C46.3467 11.456 46.9147 11.316 47.5547 11.316C48.1787 11.316 48.7307 11.452 49.2107 11.724C49.6907 11.996 50.0587 12.372 50.3147 12.852C50.5787 13.324 50.7107 13.86 50.7107 14.46ZM49.5827 14.232C49.5827 13.816 49.4907 13.46 49.3067 13.164C49.1227 12.86 48.8707 12.632 48.5507 12.48C48.2387 12.32 47.8907 12.24 47.5067 12.24C46.9547 12.24 46.4827 12.416 46.0907 12.768C45.7067 13.12 45.4867 13.608 45.4307 14.232H49.5827ZM51.6241 14.688C51.6241 14.016 51.7601 13.428 52.0321 12.924C52.3041 12.412 52.6761 12.016 53.1481 11.736C53.6281 11.456 54.1641 11.316 54.7561 11.316C55.2681 11.316 55.7441 11.436 56.1841 11.676C56.6241 11.908 56.9601 12.216 57.1921 12.6V9.12H58.2961V18H57.1921V16.764C56.9761 17.156 56.6561 17.48 56.2321 17.736C55.8081 17.984 55.3121 18.108 54.7441 18.108C54.1601 18.108 53.6281 17.964 53.1481 17.676C52.6761 17.388 52.3041 16.984 52.0321 16.464C51.7601 15.944 51.6241 15.352 51.6241 14.688ZM57.1921 14.7C57.1921 14.204 57.0921 13.772 56.8921 13.404C56.6921 13.036 56.4201 12.756 56.0761 12.564C55.7401 12.364 55.3681 12.264 54.9601 12.264C54.5521 12.264 54.1801 12.36 53.8441 12.552C53.5081 12.744 53.2401 13.024 53.0401 13.392C52.8401 13.76 52.7401 14.192 52.7401 14.688C52.7401 15.192 52.8401 15.632 53.0401 16.008C53.2401 16.376 53.5081 16.66 53.8441 16.86C54.1801 17.052 54.5521 17.148 54.9601 17.148C55.3681 17.148 55.7401 17.052 56.0761 16.86C56.4201 16.66 56.6921 16.376 56.8921 16.008C57.0921 15.632 57.1921 15.196 57.1921 14.7ZM64.1927 12.648C64.4167 12.256 64.7447 11.936 65.1767 11.688C65.6087 11.44 66.1007 11.316 66.6527 11.316C67.2447 11.316 67.7767 11.456 68.2487 11.736C68.7207 12.016 69.0927 12.412 69.3647 12.924C69.6367 13.428 69.7727 14.016 69.7727 14.688C69.7727 15.352 69.6367 15.944 69.3647 16.464C69.0927 16.984 68.7167 17.388 68.2367 17.676C67.7647 17.964 67.2367 18.108 66.6527 18.108C66.0847 18.108 65.5847 17.984 65.1527 17.736C64.7287 17.488 64.4087 17.172 64.1927 16.788V18H63.1007V9.12H64.1927V12.648ZM68.6567 14.688C68.6567 14.192 68.5567 13.76 68.3567 13.392C68.1567 13.024 67.8847 12.744 67.5407 12.552C67.2047 12.36 66.8327 12.264 66.4247 12.264C66.0247 12.264 65.6527 12.364 65.3087 12.564C64.9727 12.756 64.7007 13.04 64.4927 13.416C64.2927 13.784 64.1927 14.212 64.1927 14.7C64.1927 15.196 64.2927 15.632 64.4927 16.008C64.7007 16.376 64.9727 16.66 65.3087 16.86C65.6527 17.052 66.0247 17.148 66.4247 17.148C66.8327 17.148 67.2047 17.052 67.5407 16.86C67.8847 16.66 68.1567 16.376 68.3567 16.008C68.5567 15.632 68.6567 15.192 68.6567 14.688ZM76.7541 11.424L72.7941 21.096H71.6661L72.9621 17.928L70.3101 11.424H71.5221L73.5861 16.752L75.6261 11.424H76.7541ZM85.755 16.14H82.107L81.435 18H80.283L83.307 9.684H84.567L87.579 18H86.427L85.755 16.14ZM85.443 15.252L83.931 11.028L82.419 15.252H85.443ZM89.593 17.1H92.821V18H88.345V17.1L91.537 12.312H88.369V11.424H92.797V12.312L89.593 17.1ZM99.9499 11.424V18H98.8579V17.028C98.6499 17.364 98.3579 17.628 97.9819 17.82C97.6139 18.004 97.2059 18.096 96.7579 18.096C96.2459 18.096 95.7859 17.992 95.3779 17.784C94.9699 17.568 94.6459 17.248 94.4059 16.824C94.1739 16.4 94.0579 15.884 94.0579 15.276V11.424H95.1379V15.132C95.1379 15.78 95.3019 16.28 95.6299 16.632C95.9579 16.976 96.4059 17.148 96.9739 17.148C97.5579 17.148 98.0179 16.968 98.3539 16.608C98.6899 16.248 98.8579 15.724 98.8579 15.036V11.424H99.9499ZM102.766 12.492C102.958 12.116 103.23 11.824 103.582 11.616C103.942 11.408 104.378 11.304 104.89 11.304V12.432H104.602C103.378 12.432 102.766 13.096 102.766 14.424V18H101.674V11.424H102.766V12.492ZM112.03 14.46C112.03 14.668 112.018 14.888 111.994 15.12H106.738C106.778 15.768 106.998 16.276 107.398 16.644C107.806 17.004 108.298 17.184 108.874 17.184C109.346 17.184 109.738 17.076 110.05 16.86C110.37 16.636 110.594 16.34 110.722 15.972H111.898C111.722 16.604 111.37 17.12 110.842 17.52C110.314 17.912 109.658 18.108 108.874 18.108C108.25 18.108 107.69 17.968 107.194 17.688C106.706 17.408 106.322 17.012 106.042 16.5C105.762 15.98 105.622 15.38 105.622 14.7C105.622 14.02 105.758 13.424 106.03 12.912C106.302 12.4 106.682 12.008 107.17 11.736C107.666 11.456 108.234 11.316 108.874 11.316C109.498 11.316 110.05 11.452 110.53 11.724C111.01 11.996 111.378 12.372 111.634 12.852C111.898 13.324 112.03 13.86 112.03 14.46ZM110.902 14.232C110.902 13.816 110.81 13.46 110.626 13.164C110.442 12.86 110.19 12.632 109.87 12.48C109.558 12.32 109.21 12.24 108.826 12.24C108.274 12.24 107.802 12.416 107.41 12.768C107.026 13.12 106.806 13.608 106.75 14.232H110.902Z" fill="#7C7C80"/>
<g clip-path="url(#clip0_38_340)">
<path d="M133.192 13.7307C133.192 16.0197 134.673 17.6157 136.725 17.6157C138.777 17.6157 140.257 16.0197 140.257 13.7307C140.257 11.4417 138.777 9.8457 136.725 9.8457C134.673 9.8457 133.192 11.4417 133.192 13.7307ZM138.903 13.7307C138.903 15.3687 138.004 16.4292 136.725 16.4292C135.445 16.4292 134.546 15.3687 134.546 13.7307C134.546 12.0927 135.445 11.0322 136.725 11.0322C138.004 11.0322 138.903 12.0927 138.903 13.7307Z" fill="black"/>
<path d="M144.07 17.6153C145.624 17.6153 146.513 16.3133 146.513 14.7488C146.513 13.1843 145.624 11.8823 144.07 11.8823C143.35 11.8823 142.822 12.1658 142.473 12.5753V11.9873H141.203V19.3898H142.473V16.9223C142.822 17.3318 143.35 17.6153 144.07 17.6153ZM142.441 14.5913C142.441 13.5518 143.033 12.9848 143.816 12.9848C144.736 12.9848 145.233 13.6988 145.233 14.7488C145.233 15.7988 144.736 16.5128 143.816 16.5128C143.033 16.5128 142.441 15.9353 142.441 14.9168V14.5913Z" fill="black"/>
<path d="M149.947 17.6153C151.058 17.6153 151.936 17.0378 152.327 16.0718L151.238 15.6623C151.068 16.2293 150.571 16.5443 149.947 16.5443C149.133 16.5443 148.562 15.9668 148.467 15.0218H152.359V14.6018C152.359 13.0898 151.502 11.8823 149.894 11.8823C148.287 11.8823 147.25 13.1318 147.25 14.7488C147.25 16.4498 148.361 17.6153 149.947 17.6153ZM149.884 12.9428C150.688 12.9428 151.068 13.4678 151.079 14.0768H148.53C148.72 13.3313 149.228 12.9428 149.884 12.9428Z" fill="black"/>
<path d="M153.311 17.4998H154.58V14.2658C154.58 13.4783 155.162 13.0583 155.733 13.0583C156.431 13.0583 156.706 13.5518 156.706 14.2343V17.4998H157.975V13.8668C157.975 12.6803 157.277 11.8823 156.114 11.8823C155.395 11.8823 154.897 12.2078 154.58 12.5753V11.9873H153.311V17.4998Z" fill="black"/>
<path d="M161.692 9.96094L158.816 17.4999H160.159L160.804 15.7779H164.083L164.738 17.4999H166.103L163.226 9.96094H161.692ZM162.433 11.4519L163.638 14.6019H161.248L162.433 11.4519Z" fill="black"/>
<path d="M168.281 9.98291H166.927V17.5219H168.281V9.98291Z" fill="black"/>
<path d="M130.091 12.73C130.411 11.7767 130.301 10.7324 129.789 9.86525C129.02 8.53525 127.473 7.851 125.962 8.173C125.29 7.42138 124.325 6.99394 123.312 7.00006C121.768 6.99656 120.398 7.98356 119.923 9.44219C118.931 9.64388 118.075 10.2603 117.574 11.134C116.799 12.4605 116.975 14.1326 118.011 15.2701C117.691 16.2234 117.801 17.2678 118.313 18.1349C119.082 19.4649 120.629 20.1491 122.14 19.8271C122.811 20.5788 123.777 21.0062 124.789 20.9996C126.334 21.0036 127.705 20.0157 128.18 18.5558C129.172 18.3541 130.028 17.7376 130.529 16.8639C131.304 15.5374 131.126 13.8666 130.091 12.7291L130.091 12.73ZM124.79 20.0848C124.172 20.0857 123.573 19.8709 123.099 19.4776C123.12 19.4662 123.158 19.4456 123.182 19.4308L125.99 17.8208C126.134 17.7398 126.222 17.588 126.221 17.4239V13.4939L127.408 14.1742C127.42 14.1803 127.429 14.1926 127.43 14.2066V17.4611C127.429 18.9084 126.248 20.0818 124.79 20.0848ZM119.113 17.6773C118.803 17.1461 118.691 16.5236 118.798 15.9194C118.818 15.9316 118.855 15.9539 118.881 15.9688L121.689 17.5788C121.831 17.6615 122.007 17.6615 122.15 17.5788L125.578 15.6136V16.9742C125.579 16.9882 125.573 17.0018 125.562 17.0105L122.723 18.6376C121.459 19.3603 119.844 18.9307 119.113 17.6773H119.113ZM118.374 11.5921C118.682 11.0601 119.169 10.6532 119.749 10.4419C119.749 10.4659 119.748 10.5084 119.748 10.5381V13.7586C119.747 13.9222 119.835 14.074 119.978 14.1549L123.406 16.1198L122.219 16.8001C122.208 16.8079 122.193 16.8093 122.179 16.8036L119.34 15.1752C118.079 14.4498 117.646 12.8473 118.373 11.5925L118.374 11.5921ZM128.124 13.8448L124.696 11.8795L125.883 11.1996C125.895 11.1918 125.91 11.1904 125.923 11.1961L128.762 12.8232C130.026 13.5481 130.459 15.1533 129.729 16.4081C129.42 16.9392 128.933 17.3461 128.354 17.5578V14.2411C128.355 14.0775 128.267 13.9261 128.124 13.8448H128.124ZM129.305 12.0799C129.284 12.0672 129.248 12.0453 129.222 12.0304L126.414 10.4204C126.271 10.3378 126.095 10.3378 125.952 10.4204L122.524 12.3857V11.0251C122.523 11.0111 122.53 10.9975 122.541 10.9888L125.38 9.363C126.644 8.63894 128.26 9.06988 128.989 10.3255C129.297 10.8558 129.409 11.4766 129.304 12.0799H129.305ZM121.879 14.5049L120.692 13.8246C120.679 13.8185 120.671 13.8063 120.669 13.7923V10.5377C120.67 9.08869 121.854 7.91444 123.314 7.91531C123.931 7.91531 124.529 8.13056 125.003 8.52257C124.982 8.53394 124.945 8.5545 124.92 8.56938L122.112 10.1794C121.968 10.2603 121.88 10.4117 121.881 10.5758L121.879 14.5041V14.5049ZM122.524 13.1251L124.051 12.2496L125.578 13.1246V14.8751L124.051 15.7501L122.524 14.8751V13.1251Z" fill="black"/>
</g>
<rect x="0.5" y="0.5" width="176" height="27" rx="4.5" stroke="#D0DBE2"/>
<defs>
<clipPath id="clip0_38_340">
<rect width="52" height="14" fill="white" transform="translate(117 7)"/>
</clipPath>
</defs>
</svg>
