<svg width="212" height="14" viewBox="0 0 212 14" fill="none" xmlns="http://www.w3.org/2000/svg">
<path d="M7 1.3125C5.87512 1.3125 4.7755 1.64607 3.8402 2.27102C2.90489 2.89597 2.17591 3.78423 1.74544 4.82349C1.31496 5.86274 1.20233 7.00631 1.42179 8.10958C1.64124 9.21284 2.18292 10.2263 2.97833 11.0217C3.77374 11.8171 4.78716 12.3588 5.89043 12.5782C6.99369 12.7977 8.13726 12.685 9.17651 12.2546C10.2158 11.8241 11.104 11.0951 11.729 10.1598C12.3539 9.2245 12.6875 8.12488 12.6875 7C12.6856 5.49216 12.0858 4.04661 11.0196 2.98041C9.95339 1.9142 8.50784 1.31438 7 1.3125ZM5.99703 6.69047C6.07913 6.77256 6.12525 6.8839 6.12525 7C6.12525 7.1161 6.07913 7.22744 5.99703 7.30953C5.91494 7.39162 5.8036 7.43774 5.6875 7.43774C5.57141 7.43774 5.46006 7.39162 5.37797 7.30953L4.8125 6.74352L4.24703 7.30953C4.16494 7.39162 4.0536 7.43774 3.9375 7.43774C3.82141 7.43774 3.71006 7.39162 3.62797 7.30953C3.54588 7.22744 3.49976 7.1161 3.49976 7C3.49976 6.8839 3.54588 6.77256 3.62797 6.69047L4.19399 6.125L3.62797 5.55953C3.54588 5.47744 3.49976 5.3661 3.49976 5.25C3.49976 5.1339 3.54588 5.02256 3.62797 4.94047C3.71006 4.85838 3.82141 4.81226 3.9375 4.81226C4.0536 4.81226 4.16494 4.85838 4.24703 4.94047L4.8125 5.50648L5.37797 4.94047C5.46006 4.85838 5.57141 4.81226 5.6875 4.81226C5.8036 4.81226 5.91494 4.85838 5.99703 4.94047C6.07913 5.02256 6.12525 5.1339 6.12525 5.25C6.12525 5.3661 6.07913 5.47744 5.99703 5.55953L5.43102 6.125L5.99703 6.69047ZM7 10.5C6.87021 10.5 6.74333 10.4615 6.63541 10.3894C6.52749 10.3173 6.44338 10.2148 6.39371 10.0949C6.34404 9.97497 6.33104 9.84302 6.35636 9.71572C6.38168 9.58842 6.44419 9.47149 6.53596 9.37971C6.62774 9.28793 6.74467 9.22543 6.87197 9.20011C6.99927 9.17479 7.13122 9.18778 7.25114 9.23745C7.37105 9.28712 7.47354 9.37124 7.54565 9.47916C7.61776 9.58708 7.65625 9.71396 7.65625 9.84375C7.65625 10.0178 7.58711 10.1847 7.46404 10.3078C7.34097 10.4309 7.17405 10.5 7 10.5ZM10.372 6.69047C10.4127 6.73112 10.4449 6.77937 10.4669 6.83248C10.4889 6.88559 10.5002 6.94251 10.5002 7C10.5002 7.05749 10.4889 7.11441 10.4669 7.16752C10.4449 7.22063 10.4127 7.26888 10.372 7.30953C10.3314 7.35018 10.2831 7.38242 10.23 7.40442C10.1769 7.42642 10.12 7.43774 10.0625 7.43774C10.005 7.43774 9.94809 7.42642 9.89499 7.40442C9.84188 7.38242 9.79362 7.35018 9.75297 7.30953L9.1875 6.74352L8.62203 7.30953C8.53994 7.39162 8.4286 7.43774 8.3125 7.43774C8.19641 7.43774 8.08506 7.39162 8.00297 7.30953C7.92088 7.22744 7.87476 7.1161 7.87476 7C7.87476 6.8839 7.92088 6.77256 8.00297 6.69047L8.56899 6.125L8.00297 5.55953C7.92088 5.47744 7.87476 5.3661 7.87476 5.25C7.87476 5.1339 7.92088 5.02256 8.00297 4.94047C8.08506 4.85838 8.19641 4.81226 8.3125 4.81226C8.4286 4.81226 8.53994 4.85838 8.62203 4.94047L9.1875 5.50648L9.75297 4.94047C9.79362 4.89982 9.84188 4.86758 9.89499 4.84558C9.94809 4.82358 10.005 4.81226 10.0625 4.81226C10.12 4.81226 10.1769 4.82358 10.23 4.84558C10.2831 4.86758 10.3314 4.89982 10.372 4.94047C10.4127 4.98112 10.4449 5.02937 10.4669 5.08248C10.4889 5.13559 10.5002 5.19251 10.5002 5.25C10.5002 5.30749 10.4889 5.36441 10.4669 5.41752C10.4449 5.47063 10.4127 5.51888 10.372 5.55953L9.80602 6.125L10.372 6.69047Z" fill="#FF5151"/>
<path d="M25.5 11H24.408L20.016 4.34V11H18.924V2.624H20.016L24.408 9.272V2.624H25.5V11ZM30.1095 11.108C29.4935 11.108 28.9335 10.968 28.4295 10.688C27.9335 10.408 27.5415 10.012 27.2535 9.5C26.9735 8.98 26.8335 8.38 26.8335 7.7C26.8335 7.028 26.9775 6.436 27.2655 5.924C27.5615 5.404 27.9615 5.008 28.4655 4.736C28.9695 4.456 29.5335 4.316 30.1575 4.316C30.7815 4.316 31.3455 4.456 31.8495 4.736C32.3535 5.008 32.7495 5.4 33.0375 5.912C33.3335 6.424 33.4815 7.02 33.4815 7.7C33.4815 8.38 33.3295 8.98 33.0255 9.5C32.7295 10.012 32.3255 10.408 31.8135 10.688C31.3015 10.968 30.7335 11.108 30.1095 11.108ZM30.1095 10.148C30.5015 10.148 30.8695 10.056 31.2135 9.872C31.5575 9.688 31.8335 9.412 32.0415 9.044C32.2575 8.676 32.3655 8.228 32.3655 7.7C32.3655 7.172 32.2615 6.724 32.0535 6.356C31.8455 5.988 31.5735 5.716 31.2375 5.54C30.9015 5.356 30.5375 5.264 30.1455 5.264C29.7455 5.264 29.3775 5.356 29.0415 5.54C28.7135 5.716 28.4495 5.988 28.2495 6.356C28.0495 6.724 27.9495 7.172 27.9495 7.7C27.9495 8.236 28.0455 8.688 28.2375 9.056C28.4375 9.424 28.7015 9.7 29.0295 9.884C29.3575 10.06 29.7175 10.148 30.1095 10.148ZM36.1293 5.324V9.2C36.1293 9.52 36.1973 9.748 36.3333 9.884C36.4693 10.012 36.7053 10.076 37.0413 10.076H37.8453V11H36.8613C36.2533 11 35.7973 10.86 35.4933 10.58C35.1893 10.3 35.0373 9.84 35.0373 9.2V5.324H34.1853V4.424H35.0373V2.768H36.1293V4.424H37.8453V5.324H36.1293ZM43.2196 5.492C43.4116 5.116 43.6836 4.824 44.0356 4.616C44.3956 4.408 44.8316 4.304 45.3436 4.304V5.432H45.0556C43.8316 5.432 43.2196 6.096 43.2196 7.424V11H42.1276V4.424H43.2196V5.492ZM52.4842 7.46C52.4842 7.668 52.4722 7.888 52.4482 8.12H47.1922C47.2322 8.768 47.4522 9.276 47.8522 9.644C48.2602 10.004 48.7522 10.184 49.3282 10.184C49.8002 10.184 50.1922 10.076 50.5042 9.86C50.8242 9.636 51.0482 9.34 51.1762 8.972H52.3522C52.1762 9.604 51.8242 10.12 51.2962 10.52C50.7682 10.912 50.1122 11.108 49.3282 11.108C48.7042 11.108 48.1442 10.968 47.6482 10.688C47.1602 10.408 46.7762 10.012 46.4962 9.5C46.2162 8.98 46.0762 8.38 46.0762 7.7C46.0762 7.02 46.2122 6.424 46.4842 5.912C46.7562 5.4 47.1362 5.008 47.6242 4.736C48.1202 4.456 48.6882 4.316 49.3282 4.316C49.9522 4.316 50.5042 4.452 50.9842 4.724C51.4642 4.996 51.8322 5.372 52.0882 5.852C52.3522 6.324 52.4842 6.86 52.4842 7.46ZM51.3562 7.232C51.3562 6.816 51.2642 6.46 51.0802 6.164C50.8962 5.86 50.6442 5.632 50.3242 5.48C50.0122 5.32 49.6642 5.24 49.2802 5.24C48.7282 5.24 48.2562 5.416 47.8642 5.768C47.4802 6.12 47.2602 6.608 47.2042 7.232H51.3562ZM53.3976 7.7C53.3976 7.02 53.5336 6.428 53.8056 5.924C54.0776 5.412 54.4536 5.016 54.9336 4.736C55.4216 4.456 55.9776 4.316 56.6016 4.316C57.4096 4.316 58.0736 4.512 58.5936 4.904C59.1216 5.296 59.4696 5.84 59.6376 6.536H58.4616C58.3496 6.136 58.1296 5.82 57.8016 5.588C57.4816 5.356 57.0816 5.24 56.6016 5.24C55.9776 5.24 55.4736 5.456 55.0896 5.888C54.7056 6.312 54.5136 6.916 54.5136 7.7C54.5136 8.492 54.7056 9.104 55.0896 9.536C55.4736 9.968 55.9776 10.184 56.6016 10.184C57.0816 10.184 57.4816 10.072 57.8016 9.848C58.1216 9.624 58.3416 9.304 58.4616 8.888H59.6376C59.4616 9.56 59.1096 10.1 58.5816 10.508C58.0536 10.908 57.3936 11.108 56.6016 11.108C55.9776 11.108 55.4216 10.968 54.9336 10.688C54.4536 10.408 54.0776 10.012 53.8056 9.5C53.5336 8.988 53.3976 8.388 53.3976 7.7ZM63.8426 11.108C63.2266 11.108 62.6666 10.968 62.1626 10.688C61.6666 10.408 61.2746 10.012 60.9866 9.5C60.7066 8.98 60.5666 8.38 60.5666 7.7C60.5666 7.028 60.7106 6.436 60.9986 5.924C61.2946 5.404 61.6946 5.008 62.1986 4.736C62.7026 4.456 63.2666 4.316 63.8906 4.316C64.5146 4.316 65.0786 4.456 65.5826 4.736C66.0866 5.008 66.4826 5.4 66.7706 5.912C67.0666 6.424 67.2146 7.02 67.2146 7.7C67.2146 8.38 67.0626 8.98 66.7586 9.5C66.4626 10.012 66.0586 10.408 65.5466 10.688C65.0346 10.968 64.4666 11.108 63.8426 11.108ZM63.8426 10.148C64.2346 10.148 64.6026 10.056 64.9466 9.872C65.2906 9.688 65.5666 9.412 65.7746 9.044C65.9906 8.676 66.0986 8.228 66.0986 7.7C66.0986 7.172 65.9946 6.724 65.7866 6.356C65.5786 5.988 65.3066 5.716 64.9706 5.54C64.6346 5.356 64.2706 5.264 63.8786 5.264C63.4786 5.264 63.1106 5.356 62.7746 5.54C62.4466 5.716 62.1826 5.988 61.9826 6.356C61.7826 6.724 61.6826 7.172 61.6826 7.7C61.6826 8.236 61.7786 8.688 61.9706 9.056C62.1706 9.424 62.4346 9.7 62.7626 9.884C63.0906 10.06 63.4506 10.148 63.8426 10.148ZM76.4384 4.304C76.9504 4.304 77.4064 4.412 77.8064 4.628C78.2064 4.836 78.5224 5.152 78.7544 5.576C78.9864 6 79.1024 6.516 79.1024 7.124V11H78.0224V7.28C78.0224 6.624 77.8584 6.124 77.5304 5.78C77.2104 5.428 76.7744 5.252 76.2224 5.252C75.6544 5.252 75.2024 5.436 74.8664 5.804C74.5304 6.164 74.3624 6.688 74.3624 7.376V11H73.2824V7.28C73.2824 6.624 73.1184 6.124 72.7904 5.78C72.4704 5.428 72.0344 5.252 71.4824 5.252C70.9144 5.252 70.4624 5.436 70.1264 5.804C69.7904 6.164 69.6224 6.688 69.6224 7.376V11H68.5304V4.424H69.6224V5.372C69.8384 5.028 70.1264 4.764 70.4864 4.58C70.8544 4.396 71.2584 4.304 71.6984 4.304C72.2504 4.304 72.7384 4.428 73.1624 4.676C73.5864 4.924 73.9024 5.288 74.1104 5.768C74.2944 5.304 74.5984 4.944 75.0224 4.688C75.4464 4.432 75.9184 4.304 76.4384 4.304ZM88.6817 4.304C89.1937 4.304 89.6497 4.412 90.0497 4.628C90.4497 4.836 90.7657 5.152 90.9977 5.576C91.2297 6 91.3457 6.516 91.3457 7.124V11H90.2657V7.28C90.2657 6.624 90.1017 6.124 89.7737 5.78C89.4537 5.428 89.0177 5.252 88.4657 5.252C87.8977 5.252 87.4457 5.436 87.1097 5.804C86.7737 6.164 86.6057 6.688 86.6057 7.376V11H85.5257V7.28C85.5257 6.624 85.3617 6.124 85.0337 5.78C84.7137 5.428 84.2777 5.252 83.7257 5.252C83.1577 5.252 82.7057 5.436 82.3697 5.804C82.0337 6.164 81.8657 6.688 81.8657 7.376V11H80.7737V4.424H81.8657V5.372C82.0817 5.028 82.3697 4.764 82.7297 4.58C83.0977 4.396 83.5017 4.304 83.9417 4.304C84.4937 4.304 84.9817 4.428 85.4057 4.676C85.8297 4.924 86.1457 5.288 86.3537 5.768C86.5377 5.304 86.8417 4.944 87.2657 4.688C87.6897 4.432 88.1617 4.304 88.6817 4.304ZM99.017 7.46C99.017 7.668 99.005 7.888 98.981 8.12H93.725C93.765 8.768 93.985 9.276 94.385 9.644C94.793 10.004 95.285 10.184 95.861 10.184C96.333 10.184 96.725 10.076 97.037 9.86C97.357 9.636 97.581 9.34 97.709 8.972H98.885C98.709 9.604 98.357 10.12 97.829 10.52C97.301 10.912 96.645 11.108 95.861 11.108C95.237 11.108 94.677 10.968 94.181 10.688C93.693 10.408 93.309 10.012 93.029 9.5C92.749 8.98 92.609 8.38 92.609 7.7C92.609 7.02 92.745 6.424 93.017 5.912C93.289 5.4 93.669 5.008 94.157 4.736C94.653 4.456 95.221 4.316 95.861 4.316C96.485 4.316 97.037 4.452 97.517 4.724C97.997 4.996 98.365 5.372 98.621 5.852C98.885 6.324 99.017 6.86 99.017 7.46ZM97.889 7.232C97.889 6.816 97.797 6.46 97.613 6.164C97.429 5.86 97.177 5.632 96.857 5.48C96.545 5.32 96.197 5.24 95.813 5.24C95.261 5.24 94.789 5.416 94.397 5.768C94.013 6.12 93.793 6.608 93.737 7.232H97.889ZM103.542 4.304C104.342 4.304 104.99 4.548 105.486 5.036C105.982 5.516 106.23 6.212 106.23 7.124V11H105.15V7.28C105.15 6.624 104.986 6.124 104.658 5.78C104.33 5.428 103.882 5.252 103.314 5.252C102.738 5.252 102.278 5.432 101.934 5.792C101.598 6.152 101.43 6.676 101.43 7.364V11H100.338V4.424H101.43V5.36C101.646 5.024 101.938 4.764 102.306 4.58C102.682 4.396 103.094 4.304 103.542 4.304ZM107.486 7.688C107.486 7.016 107.622 6.428 107.894 5.924C108.166 5.412 108.538 5.016 109.01 4.736C109.49 4.456 110.026 4.316 110.618 4.316C111.13 4.316 111.606 4.436 112.046 4.676C112.486 4.908 112.822 5.216 113.054 5.6V2.12H114.158V11H113.054V9.764C112.838 10.156 112.518 10.48 112.094 10.736C111.67 10.984 111.174 11.108 110.606 11.108C110.022 11.108 109.49 10.964 109.01 10.676C108.538 10.388 108.166 9.984 107.894 9.464C107.622 8.944 107.486 8.352 107.486 7.688ZM113.054 7.7C113.054 7.204 112.954 6.772 112.754 6.404C112.554 6.036 112.282 5.756 111.938 5.564C111.602 5.364 111.23 5.264 110.822 5.264C110.414 5.264 110.042 5.36 109.706 5.552C109.37 5.744 109.102 6.024 108.902 6.392C108.702 6.76 108.602 7.192 108.602 7.688C108.602 8.192 108.702 8.632 108.902 9.008C109.102 9.376 109.37 9.66 109.706 9.86C110.042 10.052 110.414 10.148 110.822 10.148C111.23 10.148 111.602 10.052 111.938 9.86C112.282 9.66 112.554 9.376 112.754 9.008C112.954 8.632 113.054 8.196 113.054 7.7ZM121.884 7.46C121.884 7.668 121.872 7.888 121.848 8.12H116.592C116.632 8.768 116.852 9.276 117.252 9.644C117.66 10.004 118.152 10.184 118.728 10.184C119.2 10.184 119.592 10.076 119.904 9.86C120.224 9.636 120.448 9.34 120.576 8.972H121.752C121.576 9.604 121.224 10.12 120.696 10.52C120.168 10.912 119.512 11.108 118.728 11.108C118.104 11.108 117.544 10.968 117.048 10.688C116.56 10.408 116.176 10.012 115.896 9.5C115.616 8.98 115.476 8.38 115.476 7.7C115.476 7.02 115.612 6.424 115.884 5.912C116.156 5.4 116.536 5.008 117.024 4.736C117.52 4.456 118.088 4.316 118.728 4.316C119.352 4.316 119.904 4.452 120.384 4.724C120.864 4.996 121.232 5.372 121.488 5.852C121.752 6.324 121.884 6.86 121.884 7.46ZM120.756 7.232C120.756 6.816 120.664 6.46 120.48 6.164C120.296 5.86 120.044 5.632 119.724 5.48C119.412 5.32 119.064 5.24 118.68 5.24C118.128 5.24 117.656 5.416 117.264 5.768C116.88 6.12 116.66 6.608 116.604 7.232H120.756ZM122.797 7.688C122.797 7.016 122.933 6.428 123.205 5.924C123.477 5.412 123.849 5.016 124.321 4.736C124.801 4.456 125.337 4.316 125.929 4.316C126.441 4.316 126.917 4.436 127.357 4.676C127.797 4.908 128.133 5.216 128.365 5.6V2.12H129.469V11H128.365V9.764C128.149 10.156 127.829 10.48 127.405 10.736C126.981 10.984 126.485 11.108 125.917 11.108C125.333 11.108 124.801 10.964 124.321 10.676C123.849 10.388 123.477 9.984 123.205 9.464C122.933 8.944 122.797 8.352 122.797 7.688ZM128.365 7.7C128.365 7.204 128.265 6.772 128.065 6.404C127.865 6.036 127.593 5.756 127.249 5.564C126.913 5.364 126.541 5.264 126.133 5.264C125.725 5.264 125.353 5.36 125.017 5.552C124.681 5.744 124.413 6.024 124.213 6.392C124.013 6.76 123.913 7.192 123.913 7.688C123.913 8.192 124.013 8.632 124.213 9.008C124.413 9.376 124.681 9.66 125.017 9.86C125.353 10.052 125.725 10.148 126.133 10.148C126.541 10.148 126.913 10.052 127.249 9.86C127.593 9.66 127.865 9.376 128.065 9.008C128.265 8.632 128.365 8.196 128.365 7.7Z" fill="#FF5151"/>
</svg>
