<svg width="120" height="24" viewBox="0 0 120 24" fill="none" xmlns="http://www.w3.org/2000/svg">
<path d="M7 6.3125C5.87512 6.3125 4.7755 6.64607 3.8402 7.27102C2.90489 7.89597 2.17591 8.78423 1.74544 9.82349C1.31496 10.8627 1.20233 12.0063 1.42179 13.1096C1.64124 14.2128 2.18292 15.2263 2.97833 16.0217C3.77374 16.8171 4.78716 17.3588 5.89043 17.5782C6.99369 17.7977 8.13726 17.685 9.17651 17.2546C10.2158 16.8241 11.104 16.0951 11.729 15.1598C12.3539 14.2245 12.6875 13.1249 12.6875 12C12.6859 10.4921 12.0862 9.04636 11.0199 7.98009C9.95365 6.91382 8.50793 6.31409 7 6.3125ZM5.03125 10.25C5.16105 10.25 5.28793 10.2885 5.39585 10.3606C5.50377 10.4327 5.58788 10.5352 5.63755 10.6551C5.68722 10.775 5.70021 10.907 5.67489 11.0343C5.64957 11.1616 5.58707 11.2785 5.49529 11.3703C5.40351 11.4621 5.28658 11.5246 5.15928 11.5499C5.03198 11.5752 4.90003 11.5622 4.78012 11.5125C4.6602 11.4629 4.55771 11.3788 4.4856 11.2708C4.41349 11.1629 4.375 11.036 4.375 10.9062C4.375 10.7322 4.44414 10.5653 4.56721 10.4422C4.69028 10.3191 4.8572 10.25 5.03125 10.25ZM9.56594 13.5312C9.00321 14.5041 8.06805 15.0625 7 15.0625C5.93196 15.0625 4.9968 14.5047 4.43407 13.5312C4.40241 13.4815 4.38116 13.4258 4.37158 13.3675C4.362 13.3093 4.3643 13.2498 4.37834 13.1925C4.39238 13.1351 4.41786 13.0813 4.45326 13.0341C4.48867 12.9869 4.53325 12.9473 4.58433 12.9178C4.63542 12.8882 4.69195 12.8693 4.75052 12.8622C4.8091 12.8551 4.86851 12.8599 4.92517 12.8764C4.98184 12.8928 5.0346 12.9205 5.08027 12.9579C5.12595 12.9953 5.16359 13.0415 5.19094 13.0938C5.59946 13.7998 6.24149 14.1875 7 14.1875C7.75852 14.1875 8.40055 13.7992 8.80906 13.0938C8.83642 13.0415 8.87406 12.9953 8.91973 12.9579C8.9654 12.9205 9.01816 12.8928 9.07483 12.8764C9.1315 12.8599 9.19091 12.8551 9.24948 12.8622C9.30806 12.8693 9.36459 12.8882 9.41567 12.9178C9.46676 12.9473 9.51134 12.9869 9.54674 13.0341C9.58214 13.0813 9.60763 13.1351 9.62167 13.1925C9.6357 13.2498 9.638 13.3093 9.62843 13.3675C9.61885 13.4258 9.59759 13.4815 9.56594 13.5312ZM8.96875 11.5625C8.83896 11.5625 8.71208 11.524 8.60416 11.4519C8.49624 11.3798 8.41213 11.2773 8.36246 11.1574C8.31279 11.0375 8.29979 10.9055 8.32511 10.7782C8.35043 10.6509 8.41294 10.534 8.50471 10.4422C8.59649 10.3504 8.71342 10.2879 8.84072 10.2626C8.96802 10.2373 9.09997 10.2503 9.21989 10.3C9.3398 10.3496 9.44229 10.4337 9.5144 10.5417C9.58651 10.6496 9.625 10.7765 9.625 10.9062C9.625 11.0803 9.55586 11.2472 9.43279 11.3703C9.30972 11.4934 9.1428 11.5625 8.96875 11.5625Z" fill="#3FBEA0"/>
<path d="M24.516 10.084C24.516 10.78 24.276 11.36 23.796 11.824C23.324 12.28 22.6 12.508 21.624 12.508H20.016V16H18.924V7.636H21.624C22.568 7.636 23.284 7.864 23.772 8.32C24.268 8.776 24.516 9.364 24.516 10.084ZM21.624 11.608C22.232 11.608 22.68 11.476 22.968 11.212C23.256 10.948 23.4 10.572 23.4 10.084C23.4 9.052 22.808 8.536 21.624 8.536H20.016V11.608H21.624ZM31.7532 12.46C31.7532 12.668 31.7412 12.888 31.7172 13.12H26.4612C26.5012 13.768 26.7212 14.276 27.1212 14.644C27.5292 15.004 28.0212 15.184 28.5972 15.184C29.0692 15.184 29.4612 15.076 29.7732 14.86C30.0932 14.636 30.3172 14.34 30.4452 13.972H31.6212C31.4452 14.604 31.0932 15.12 30.5652 15.52C30.0372 15.912 29.3812 16.108 28.5972 16.108C27.9732 16.108 27.4132 15.968 26.9172 15.688C26.4292 15.408 26.0452 15.012 25.7652 14.5C25.4852 13.98 25.3452 13.38 25.3452 12.7C25.3452 12.02 25.4812 11.424 25.7532 10.912C26.0252 10.4 26.4052 10.008 26.8932 9.736C27.3892 9.456 27.9572 9.316 28.5972 9.316C29.2212 9.316 29.7732 9.452 30.2532 9.724C30.7332 9.996 31.1012 10.372 31.3572 10.852C31.6212 11.324 31.7532 11.86 31.7532 12.46ZM30.6252 12.232C30.6252 11.816 30.5332 11.46 30.3492 11.164C30.1652 10.86 29.9132 10.632 29.5932 10.48C29.2812 10.32 28.9332 10.24 28.5492 10.24C27.9972 10.24 27.5252 10.416 27.1332 10.768C26.7492 11.12 26.5292 11.608 26.4732 12.232H30.6252ZM34.1666 10.492C34.3586 10.116 34.6306 9.824 34.9826 9.616C35.3426 9.408 35.7786 9.304 36.2906 9.304V10.432H36.0026C34.7786 10.432 34.1666 11.096 34.1666 12.424V16H33.0746V9.424H34.1666V10.492ZM40.1072 10.324H38.7272V16H37.6352V10.324H36.7832V9.424H37.6352V8.956C37.6352 8.22 37.8232 7.684 38.1992 7.348C38.5832 7.004 39.1952 6.832 40.0352 6.832V7.744C39.5552 7.744 39.2152 7.84 39.0152 8.032C38.8232 8.216 38.7272 8.524 38.7272 8.956V9.424H40.1072V10.324ZM44.1284 16.108C43.5124 16.108 42.9524 15.968 42.4484 15.688C41.9524 15.408 41.5604 15.012 41.2724 14.5C40.9924 13.98 40.8524 13.38 40.8524 12.7C40.8524 12.028 40.9964 11.436 41.2844 10.924C41.5804 10.404 41.9804 10.008 42.4844 9.736C42.9884 9.456 43.5524 9.316 44.1764 9.316C44.8004 9.316 45.3644 9.456 45.8684 9.736C46.3724 10.008 46.7684 10.4 47.0564 10.912C47.3524 11.424 47.5004 12.02 47.5004 12.7C47.5004 13.38 47.3484 13.98 47.0444 14.5C46.7484 15.012 46.3444 15.408 45.8324 15.688C45.3204 15.968 44.7524 16.108 44.1284 16.108ZM44.1284 15.148C44.5204 15.148 44.8884 15.056 45.2324 14.872C45.5764 14.688 45.8524 14.412 46.0604 14.044C46.2764 13.676 46.3844 13.228 46.3844 12.7C46.3844 12.172 46.2804 11.724 46.0724 11.356C45.8644 10.988 45.5924 10.716 45.2564 10.54C44.9204 10.356 44.5564 10.264 44.1644 10.264C43.7644 10.264 43.3964 10.356 43.0604 10.54C42.7324 10.716 42.4684 10.988 42.2684 11.356C42.0684 11.724 41.9684 12.172 41.9684 12.7C41.9684 13.236 42.0644 13.688 42.2564 14.056C42.4564 14.424 42.7204 14.7 43.0484 14.884C43.3764 15.06 43.7364 15.148 44.1284 15.148ZM49.9082 10.492C50.1002 10.116 50.3722 9.824 50.7242 9.616C51.0842 9.408 51.5202 9.304 52.0322 9.304V10.432H51.7442C50.5202 10.432 49.9082 11.096 49.9082 12.424V16H48.8162V9.424H49.9082V10.492ZM61.0807 9.304C61.5927 9.304 62.0487 9.412 62.4487 9.628C62.8487 9.836 63.1647 10.152 63.3967 10.576C63.6287 11 63.7447 11.516 63.7447 12.124V16H62.6647V12.28C62.6647 11.624 62.5007 11.124 62.1727 10.78C61.8527 10.428 61.4167 10.252 60.8647 10.252C60.2967 10.252 59.8447 10.436 59.5087 10.804C59.1727 11.164 59.0047 11.688 59.0047 12.376V16H57.9247V12.28C57.9247 11.624 57.7607 11.124 57.4327 10.78C57.1127 10.428 56.6767 10.252 56.1247 10.252C55.5567 10.252 55.1047 10.436 54.7687 10.804C54.4327 11.164 54.2647 11.688 54.2647 12.376V16H53.1727V9.424H54.2647V10.372C54.4807 10.028 54.7687 9.764 55.1287 9.58C55.4967 9.396 55.9007 9.304 56.3407 9.304C56.8927 9.304 57.3807 9.428 57.8047 9.676C58.2287 9.924 58.5447 10.288 58.7527 10.768C58.9367 10.304 59.2407 9.944 59.6647 9.688C60.0887 9.432 60.5607 9.304 61.0807 9.304ZM77.2553 9.424L75.2033 16H74.0753L72.4913 10.78L70.9073 16H69.7793L67.7153 9.424H68.8313L70.3433 14.944L71.9753 9.424H73.0913L74.6873 14.956L76.1753 9.424H77.2553ZM84.219 12.46C84.219 12.668 84.207 12.888 84.183 13.12H78.927C78.967 13.768 79.187 14.276 79.587 14.644C79.995 15.004 80.487 15.184 81.063 15.184C81.535 15.184 81.927 15.076 82.239 14.86C82.559 14.636 82.783 14.34 82.911 13.972H84.087C83.911 14.604 83.559 15.12 83.031 15.52C82.503 15.912 81.847 16.108 81.063 16.108C80.439 16.108 79.879 15.968 79.383 15.688C78.895 15.408 78.511 15.012 78.231 14.5C77.951 13.98 77.811 13.38 77.811 12.7C77.811 12.02 77.947 11.424 78.219 10.912C78.491 10.4 78.871 10.008 79.359 9.736C79.855 9.456 80.423 9.316 81.063 9.316C81.687 9.316 82.239 9.452 82.719 9.724C83.199 9.996 83.567 10.372 83.823 10.852C84.087 11.324 84.219 11.86 84.219 12.46ZM83.091 12.232C83.091 11.816 82.999 11.46 82.815 11.164C82.631 10.86 82.379 10.632 82.059 10.48C81.747 10.32 81.399 10.24 81.015 10.24C80.463 10.24 79.991 10.416 79.599 10.768C79.215 11.12 78.995 11.608 78.939 12.232H83.091ZM86.6324 7.12V16H85.5404V7.12H86.6324ZM89.4655 7.12V16H88.3735V7.12H89.4655Z" fill="#3FBEA0"/>
</svg>
