<svg width="350" height="290" viewBox="0 0 350 290" fill="none" xmlns="http://www.w3.org/2000/svg">
<g clip-path="url(#clip0_6_2273)">
<rect width="350" height="290" fill="white"/>
<rect x="-23.1099" y="-15.9856" width="379" height="324" fill="url(#paint0_linear_6_2273)"/>
<path d="M-148.239 272.147C-151.655 277.512 -155.295 282.747 -158.903 287.961C-169.547 303.346 -181.673 319.819 -185.579 338.599C-189.506 357.417 -188.228 377.119 -181.158 395.286C-172.918 416.503 -156.653 434.093 -138.55 447.261C-125.408 456.816 -109.832 463.177 -93.7752 464.526C-75.3713 466.069 -60.7818 461.696 -46.4369 450.082C-36.4225 441.981 -27.5718 432.353 -16.8404 425.239C2.69943 412.273 26.7704 408.569 49.7196 403.473C63.5225 400.403 77.3898 396.551 89.8772 389.857C96.1586 386.496 101.818 382.365 107.043 377.501C110.972 373.834 115.445 371.383 119.141 367.36C134.838 350.232 145.523 328.181 148.565 304.809C149.868 294.816 149.752 284.599 148.051 274.611C141.797 237.819 112.534 204.657 76.2319 197.514C63.6099 195.021 50.4953 195.511 38.1337 191.828C19.6553 186.332 4.85131 172.201 -12.5883 163.848C-35.1749 153.045 -62.2259 152.667 -84.674 162.824C-105.121 172.083 -124.176 191.601 -129.999 213.977C-133.206 226.283 -131.349 238.412 -136.435 250.356C-139.679 257.991 -143.777 265.17 -148.223 272.136L-148.239 272.147Z" fill="url(#paint1_linear_6_2273)" fill-opacity="0.17"/>
<path d="M202.254 24.6302C199.566 28.8523 196.702 32.9718 193.863 37.0746C185.486 49.1815 175.944 62.1452 172.87 76.9238C169.779 91.7319 170.786 107.236 176.349 121.533C182.833 138.229 195.633 152.071 209.879 162.434C220.22 169.953 232.478 174.958 245.114 176.02C259.596 177.235 271.077 173.793 282.366 164.653C290.247 158.278 297.211 150.702 305.656 145.104C321.033 134.9 339.975 131.985 358.035 127.975C368.897 125.56 379.809 122.528 389.636 117.26C394.579 114.616 399.033 111.364 403.144 107.537C406.236 104.651 409.756 102.722 412.665 99.5571C425.017 86.0777 433.426 68.7251 435.82 50.3332C436.845 42.4696 436.753 34.4291 435.415 26.5696C430.494 -2.38388 407.466 -28.4799 378.898 -34.1007C368.965 -36.0631 358.645 -35.6775 348.917 -38.5754C334.376 -42.9006 322.726 -54.0209 309.002 -60.594C291.228 -69.0954 269.941 -69.3924 252.276 -61.3999C236.185 -54.1134 221.191 -38.7539 216.608 -21.1459C214.084 -11.4614 215.546 -1.91709 211.543 7.48235C208.99 13.4906 205.765 19.1395 202.267 24.6219L202.254 24.6302Z" fill="url(#paint2_linear_6_2273)" fill-opacity="0.17"/>
</g>
<defs>
<linearGradient id="paint0_linear_6_2273" x1="166.39" y1="-15.9856" x2="166.39" y2="308.014" gradientUnits="userSpaceOnUse">
<stop stop-color="#2267EF"/>
<stop offset="1" stop-color="#4B82EF"/>
</linearGradient>
<linearGradient id="paint1_linear_6_2273" x1="-114.102" y1="180.981" x2="43.3289" y2="420.791" gradientUnits="userSpaceOnUse">
<stop stop-color="#62CDFA"/>
<stop offset="1" stop-color="#62CDFA" stop-opacity="0"/>
</linearGradient>
<linearGradient id="paint2_linear_6_2273" x1="229.118" y1="-47.1111" x2="353.006" y2="141.603" gradientUnits="userSpaceOnUse">
<stop stop-color="#62CDFA"/>
<stop offset="1" stop-color="#62CDFA" stop-opacity="0"/>
</linearGradient>
<clipPath id="clip0_6_2273">
<rect width="350" height="290" fill="white"/>
</clipPath>
</defs>
</svg>
