<?xml version="1.0" standalone="no"?>
<!DOCTYPE svg PUBLIC "-//W3C//DTD SVG 20010904//EN"
 "http://www.w3.org/TR/2001/REC-SVG-20010904/DTD/svg10.dtd">
<svg version="1.0" xmlns="http://www.w3.org/2000/svg"
 width="225.000000pt" height="115.000000pt" viewBox="0 0 225.000000 115.000000"
 preserveAspectRatio="xMidYMid meet">

<g transform="translate(0.000000,115.000000) scale(0.100000,-0.100000)"
fill="#000000" stroke="none">
<path d="M1001 993 c-7 -16 -20 -42 -28 -59 -20 -43 -14 -78 15 -82 29 -4 28
-16 -3 -40 -14 -11 -25 -25 -25 -31 0 -6 -4 -11 -10 -11 -5 0 -10 -9 -10 -20
0 -30 25 -24 55 13 14 17 33 40 41 50 8 9 14 22 14 27 0 6 21 10 48 10 46 0
48 -1 95 -65 27 -36 54 -65 62 -65 29 0 22 30 -16 69 -41 44 -48 61 -25 61 30
0 38 27 21 67 -9 21 -23 53 -31 71 l-14 32 -88 0 c-87 0 -89 -1 -101 -27z
m167 -56 c7 -18 12 -36 12 -40 0 -4 -36 -7 -80 -7 -86 0 -85 -1 -57 58 9 19
18 22 62 22 49 0 52 -1 63 -33z"/>
<path d="M214 983 c-4 -10 -17 -42 -30 -71 -47 -103 -37 -112 125 -112 125 0
125 0 156 -30 21 -21 34 -27 45 -20 12 8 12 11 -3 27 -10 11 -14 27 -11 40 6
23 -30 148 -48 171 -7 8 -44 12 -120 12 -95 0 -109 -2 -114 -17z m196 -79 c11
-26 20 -48 20 -50 0 -2 -43 -4 -95 -4 l-95 0 6 28 c18 71 19 72 83 72 l60 0
21 -46z"/>
<path d="M1732 978 c-7 -7 -12 -20 -12 -29 0 -9 -10 -38 -21 -65 -17 -37 -19
-52 -10 -66 14 -22 14 -28 0 -28 -17 0 -79 -51 -79 -66 0 -18 25 -18 42 0 8 7
23 16 35 20 11 4 28 15 38 26 16 18 31 20 150 20 167 0 175 7 135 120 -31 86
-20 80 -150 80 -77 0 -120 -4 -128 -12z m204 -68 c34 -72 36 -70 -76 -70 -89
0 -101 2 -96 16 3 9 9 28 13 42 9 38 20 43 88 40 53 -3 61 -6 71 -28z"/>
<path d="M510 635 c0 -9 9 -15 25 -15 24 0 25 -2 25 -75 0 -60 3 -75 15 -75
12 0 15 15 15 75 l0 75 30 0 c20 0 30 5 30 15 0 12 -14 15 -70 15 -56 0 -70
-3 -70 -15z"/>
<path d="M711 591 c-26 -26 -28 -83 -4 -106 12 -12 26 -15 50 -12 20 4 31 2
28 -4 -4 -5 3 -9 14 -9 19 0 21 6 21 70 0 66 -1 70 -22 70 -13 0 -33 3 -45 6
-14 4 -28 -1 -42 -15z m70 -32 c22 -42 -18 -88 -49 -57 -13 13 -16 60 -5 71
13 14 43 6 54 -14z"/>
<path d="M911 591 c-26 -26 -28 -83 -4 -106 11 -12 26 -15 49 -12 28 5 31 3
27 -14 -6 -21 -42 -26 -60 -8 -6 6 -16 8 -23 4 -20 -13 20 -45 56 -45 52 0 64
20 64 111 0 75 -1 79 -22 79 -13 0 -33 3 -45 6 -14 4 -28 -1 -42 -15z m70 -32
c22 -42 -18 -88 -49 -57 -13 13 -16 60 -5 71 13 14 43 6 54 -14z"/>
<path d="M1148 603 c-3 -4 -6 -47 -7 -95 l-2 -88 60 0 c54 0 61 2 61 20 0 17
-7 20 -40 20 l-39 0 -3 72 c-2 43 -8 73 -15 75 -6 2 -13 0 -15 -4z"/>
<path d="M1282 593 c5 -25 28 -28 28 -4 0 12 -6 21 -16 21 -9 0 -14 -7 -12
-17z"/>
<path d="M1480 515 c0 -78 3 -95 15 -95 8 0 15 9 15 19 0 31 18 34 36 6 17
-25 44 -34 44 -14 0 7 -9 26 -20 44 -20 32 -20 32 0 50 11 10 20 22 20 27 0
16 -24 8 -52 -19 l-28 -27 0 52 c0 40 -4 52 -15 52 -12 0 -15 -17 -15 -95z"/>
<path d="M1280 490 c0 -56 3 -70 15 -70 12 0 15 14 15 70 0 56 -3 70 -15 70
-12 0 -15 -14 -15 -70z"/>
<path d="M1340 490 c0 -56 3 -70 15 -70 11 0 15 12 15 50 0 36 4 52 15 56 26
10 45 -16 45 -62 0 -24 5 -44 10 -44 6 0 10 28 10 64 0 55 -3 66 -20 71 -10 3
-28 1 -39 -4 -13 -7 -22 -8 -26 -1 -16 26 -25 4 -25 -60z"/>
<path d="M413 384 c-20 -22 -31 -24 -105 -24 -46 0 -88 -4 -94 -8 -20 -12 -64
-115 -64 -148 0 -20 6 -34 16 -38 9 -3 80 -6 159 -6 131 0 145 2 154 19 12 21
4 55 -28 121 -27 55 -27 56 7 85 l27 24 -25 0 c-14 -1 -35 -12 -47 -25z m-16
-131 c6 -21 10 -39 9 -41 -2 -1 -44 -1 -94 0 l-90 3 15 38 15 37 67 0 66 0 12
-37z"/>
<path d="M1680 365 c0 -8 5 -15 10 -15 6 0 10 -6 10 -14 0 -8 5 -16 11 -18 7
-2 2 -26 -15 -69 -31 -78 -33 -105 -7 -119 11 -5 74 -10 140 -10 110 0 121 2
134 21 13 18 13 26 -5 72 -11 29 -22 59 -25 69 -6 21 -33 28 -110 28 -59 0
-63 2 -89 35 -27 36 -54 46 -54 20z m208 -140 c24 -51 19 -55 -72 -55 l-85 0
17 40 c17 40 17 40 73 40 50 0 57 -3 67 -25z"/>
</g>
</svg>
